<?xml version="1.0" encoding="utf-8"?>
<!-- Generator: Adobe Illustrator 17.1.0, SVG Export Plug-In . SVG Version: 6.00 Build 0)  -->
<!DOCTYPE svg PUBLIC "-//W3C//DTD SVG 1.1//EN" "http://www.w3.org/Graphics/SVG/1.1/DTD/svg11.dtd">
<svg version="1.1" id="Layer_1" xmlns="http://www.w3.org/2000/svg" xmlns:xlink="http://www.w3.org/1999/xlink" x="0px" y="0px"
	 viewBox="0 0 100 77" enable-background="new 0 0 100 77" xml:space="preserve">
<path d="M51.3,21.7c-5.3,0-9.6,4.3-9.6,9.6S46,41,51.3,41s9.6-4.3,9.6-9.6S56.6,21.7,51.3,21.7z"/>
<path d="M78.7,17.6H67.6c0-5.3-4.3-9.6-9.6-9.6H44.6c-5.3,0-9.6,4.3-9.6,9.6H23.9c-5.3,0-9.6,4.3-9.6,9.6v28.1
	c0,5.3,4.3,9.6,9.6,9.6h54.8c5.3,0,9.6-4.3,9.6-9.6V27.2C88.3,21.9,84,17.6,78.7,17.6z M51.3,58.3c-9.4,0-17-7.6-17-17s7.6-17,17-17
	s17,7.6,17,17S60.7,58.3,51.3,58.3z"/>
</svg>
