<?xml version="1.0" encoding="utf-8"?>
<!-- Generator: Adobe Illustrator 17.1.0, SVG Export Plug-In . SVG Version: 6.00 Build 0)  -->
<!DOCTYPE svg PUBLIC "-//W3C//DTD SVG 1.1//EN" "http://www.w3.org/Graphics/SVG/1.1/DTD/svg11.dtd">
<svg version="1.1" id="Layer_1" xmlns="http://www.w3.org/2000/svg" xmlns:xlink="http://www.w3.org/1999/xlink" x="0px" y="0px"
	 viewBox="0 0 100 100" enable-background="new 0 0 100 100" xml:space="preserve">
<g>
	<path d="M51.3,79.6c16.3,0,29.6-13.3,29.6-29.6c0-16.3-13.3-29.6-29.6-29.6C35,20.4,21.7,33.7,21.7,50C21.7,66.3,35,79.6,51.3,79.6
		z M51.3,26.3C64.4,26.3,75,36.9,75,50c0,13.1-10.6,23.7-23.7,23.7S27.6,63.1,27.6,50S38.2,26.3,51.3,26.3z"/>
	<path d="M48.4,50.6c0,0.1,0,0.2,0.1,0.2c0,0.1,0.1,0.2,0.1,0.3c0,0.1,0.1,0.2,0.1,0.3c0,0.1,0.1,0.2,0.1,0.2
		c0.1,0.1,0.2,0.3,0.3,0.4c0,0,0,0,0,0l11.9,11.9c1.2,1.2,3,1.2,4.2,0c1.2-1.2,1.2-3,0-4.2l-11-11V36.9c0-1.6-1.3-3-3-3s-3,1.3-3,3
		V50C48.3,50.2,48.4,50.4,48.4,50.6z"/>
</g>
</svg>
