<?xml version="1.0" encoding="utf-8"?>
<!-- Generator: Adobe Illustrator 17.1.0, SVG Export Plug-In . SVG Version: 6.00 Build 0)  -->
<!DOCTYPE svg PUBLIC "-//W3C//DTD SVG 1.1//EN" "http://www.w3.org/Graphics/SVG/1.1/DTD/svg11.dtd">
<svg version="1.1" id="Layer_1" xmlns="http://www.w3.org/2000/svg" xmlns:xlink="http://www.w3.org/1999/xlink" x="0px" y="0px"
	 viewBox="0 0 90 90" enable-background="new 0 0 90 90" xml:space="preserve">
<path d="M65.4,21.4H60v-1.5c0-1.4-1.2-2.6-2.6-2.6c-1.4,0-2.6,1.2-2.6,2.6v1.5H37.5v-1.5c0-1.4-1.2-2.6-2.6-2.6s-2.6,1.2-2.6,2.6
	v1.5h-5.5c-4.7,0-8.5,3.8-8.5,8.5v34.3c0,4.7,3.8,8.5,8.5,8.5h38.5c4.7,0,8.5-3.8,8.5-8.5V29.9C74,25.2,70.1,21.4,65.4,21.4z
	 M69.5,64.2c0,2.2-1.8,4.1-4.1,4.1H26.9c-2.2,0-4.1-1.8-4.1-4.1V29.9c0-2.2,1.8-4.1,4.1-4.1h5.5v2.1c0,1.4,1.2,2.6,2.6,2.6
	s2.6-1.2,2.6-2.6v-2.1h17.3v2.1c0,1.4,1.2,2.6,2.6,2.6c1.4,0,2.6-1.2,2.6-2.6v-2.1h5.5c2.2,0,4.1,1.8,4.1,4.1L69.5,64.2L69.5,64.2z"
	/>
</svg>
