<?xml version="1.0" encoding="utf-8"?>
<!-- Generator: Adobe Illustrator 17.1.0, SVG Export Plug-In . SVG Version: 6.00 Build 0)  -->
<!DOCTYPE svg PUBLIC "-//W3C//DTD SVG 1.1//EN" "http://www.w3.org/Graphics/SVG/1.1/DTD/svg11.dtd">
<svg version="1.1" id="Layer_1" xmlns="http://www.w3.org/2000/svg" xmlns:xlink="http://www.w3.org/1999/xlink" x="0px" y="0px"
	 viewBox="0 0 100 100" enable-background="new 0 0 100 100" xml:space="preserve">
<g id="Your_Icon">
	<g>
		<path d="M48.1,43.8c-1.5,0.8-3.2,1.2-4.9,1.3c-2.8,0-5.4-1.1-7.4-3c-2-2-3.1-4.6-3.1-7.4c0-3.9,2.1-7.4,5.5-9.3
			c1.5-0.8,3.2-1.2,4.9-1.3c2.8,0,5.4,1.1,7.4,3c2,2,3.1,4.6,3.1,7.4C53.7,38.4,51.6,42,48.1,43.8L48.1,43.8z"/>
		<path d="M66.2,49.8c-1.1,0.6-2.4,0.9-3.7,0.9c-2.1,0-4.1-0.8-5.6-2.3c-1.5-1.5-2.3-3.5-2.3-5.6c0-2.9,1.6-5.6,4.2-7
			c1.1-0.6,2.4-0.9,3.7-0.9c2.1,0,4.1,0.8,5.6,2.3c1.5,1.5,2.3,3.5,2.3,5.6C70.3,45.8,68.7,48.4,66.2,49.8L66.2,49.8z"/>
		<path d="M49,59.4c0-4.3,2.1-8.3,5.5-10.9l0.5-0.3c-0.9-1.3-2-2.4-3.3-3.3c-0.7,0.7-1.6,1.1-2.5,1.6c-1.8,1-3.9,1.4-6,1.4h-0.1
			c-3.2,0-6.2-1.1-8.5-3.2c-3.6,2.6-5.9,7-5.9,11.8c0,8,6.5,19.5,14.5,19.5c3.6,0,6.9-2.3,9.4-5.6C50.3,66.9,49,62.8,49,59.4z"/>
		<path d="M68.8,50.6c-0.6,0.5-1.2,0.9-1.9,1.3c-1.4,0.7-2.9,1.2-4.5,1.2h0c-2.4,0-4.6-0.9-6.4-2.5c-2.7,2-4.5,5.2-4.5,8.8
			c0,6,4.9,14.6,10.9,14.6s10.9-8.6,10.9-14.6C73.3,55.8,71.5,52.6,68.8,50.6z"/>
	</g>
</g>
</svg>
