<?xml version="1.0" encoding="utf-8"?>
<!-- Generator: Adobe Illustrator 17.1.0, SVG Export Plug-In . SVG Version: 6.00 Build 0)  -->
<!DOCTYPE svg PUBLIC "-//W3C//DTD SVG 1.1//EN" "http://www.w3.org/Graphics/SVG/1.1/DTD/svg11.dtd">
<svg version="1.1" id="Ebene_1" xmlns="http://www.w3.org/2000/svg" xmlns:xlink="http://www.w3.org/1999/xlink" x="0px" y="0px"
	 viewBox="0 0 100 100" enable-background="new 0 0 100 100" xml:space="preserve">
<g>
	<g>
		<path d="M51.3,18.6c17.9,0,32.4,14.5,32.4,32.4S69.2,83.4,51.3,83.4S18.9,68.9,18.9,51S33.4,18.6,51.3,18.6 M51.3,14
			c-20.5,0-37,16.6-37,37s16.6,37,37,37s37-16.6,37-37S71.8,14,51.3,14L51.3,14z"/>
	</g>
	<g>
		<path d="M51.3,41.8c-11.2,0-21.9-2.4-32-7l1.9-4.2c9.4,4.4,19.5,6.6,30,6.6c10.5,0,20.6-2.2,30-6.6l1.9,4.2
			C73.2,39.4,62.4,41.8,51.3,41.8z"/>
	</g>
	<g>
		<path d="M81.3,71.5c-9.4-4.4-19.5-6.6-30-6.6c-10.5,0-20.6,2.2-30,6.6l-1.9-4.2c10.1-4.6,20.8-7,32-7c11.2,0,21.9,2.4,32,7
			L81.3,71.5z"/>
	</g>
	<g>
		<path d="M44.4,87.2c-6-11.1-9.1-23.6-9.1-36.2c0-12.6,3.1-25,9-36.1l4.1,2.2c-5.5,10.4-8.5,22.1-8.5,33.9c0,11.9,3,23.6,8.6,34
			L44.4,87.2z"/>
	</g>
	<g>
		<path d="M58.2,87.2L54.1,85c5.6-10.4,8.6-22.1,8.6-34c0-11.8-2.9-23.5-8.5-33.9l4.1-2.2c5.9,11,9,23.5,9,36.1
			C67.3,63.7,64.1,76.2,58.2,87.2z"/>
	</g>
</g>
</svg>
