<?xml version="1.0" encoding="utf-8"?>
<!-- Generator: Adobe Illustrator 17.1.0, SVG Export Plug-In . SVG Version: 6.00 Build 0)  -->
<!DOCTYPE svg PUBLIC "-//W3C//DTD SVG 1.1//EN" "http://www.w3.org/Graphics/SVG/1.1/DTD/svg11.dtd">
<svg version="1.1" id="Layer_1" xmlns="http://www.w3.org/2000/svg" xmlns:xlink="http://www.w3.org/1999/xlink" x="0px" y="0px"
	 viewBox="0 0 100 100" enable-background="new 0 0 100 100" xml:space="preserve">
<g id="Your_Icon">
	<g>
		<path fill="#010101" d="M80.6,24.2c-5-5-11.6-7.7-18.7-7.7c-7.1,0-13.7,2.7-18.7,7.7c-5,5-7.7,11.6-7.7,18.7c0,4.2,1,8.2,2.8,11.8
			L16.7,76.3c-3.3,3.3-3.3,8.5,0,11.8c1.6,1.6,3.8,2.4,5.9,2.4c2.1,0,4.3-0.8,5.9-2.4l21.6-21.6c3.6,1.8,7.6,2.8,11.8,2.8
			c7.1,0,13.7-2.7,18.7-7.7c5-5,7.7-11.6,7.7-18.7C88.3,35.9,85.6,29.2,80.6,24.2z M61.9,58.2c-4.1,0-7.9-1.6-10.8-4.5
			c-2.9-2.9-4.5-6.7-4.5-10.8c0-4.1,1.6-7.9,4.5-10.8c2.9-2.9,6.7-4.5,10.8-4.5c4.1,0,7.9,1.6,10.8,4.5c2.9,2.9,4.5,6.7,4.5,10.8
			c0,4.1-1.6,7.9-4.5,10.8C69.8,56.6,66,58.2,61.9,58.2z"/>
	</g>
</g>
</svg>
