<?xml version="1.0" encoding="utf-8"?>
<!-- Generator: Adobe Illustrator 17.1.0, SVG Export Plug-In . SVG Version: 6.00 Build 0)  -->
<!DOCTYPE svg PUBLIC "-//W3C//DTD SVG 1.1//EN" "http://www.w3.org/Graphics/SVG/1.1/DTD/svg11.dtd">
<svg version="1.1" id="Layer_1" xmlns="http://www.w3.org/2000/svg" xmlns:xlink="http://www.w3.org/1999/xlink" x="0px" y="0px"
	 viewBox="0 0 100 100" enable-background="new 0 0 100 100" xml:space="preserve">
<g id="Your_Icon">
	<g>
		<path d="M22.5,12.6H80c4.6,0,8.2,3.6,8.2,8.1c0,4.5-3.6,8.1-8.2,8.1H22.5c-4.5,0-8.2-3.6-8.2-8.1C14.3,16.2,18,12.6,22.5,12.6
			L22.5,12.6z"/>
		<path d="M22.6,39.7h57.5c4.5,0,8.2,3.6,8.2,8.1c0,4.5-3.7,8.1-8.2,8.1H22.6c-4.6,0-8.2-3.6-8.2-8.1C14.4,43.3,18.1,39.7,22.6,39.7
			L22.6,39.7z"/>
		<path d="M22.5,66.7H80c4.6,0,8.2,3.6,8.2,8.1c0,4.5-3.6,8.1-8.2,8.1H22.5c-4.6,0-8.2-3.6-8.2-8.1C14.3,70.3,18,66.7,22.5,66.7
			L22.5,66.7z"/>
	</g>
</g>
</svg>
